{"asset":{"generator":"3D Builder","version":"2.0"},"scene":0,"scenes":[{"nodes":[0]}],"nodes":[{"mesh":0,"matrix":[0.99999994039535522,0,0,0,0,-1.1920928244535389E-7,-0.99999982118606567,0,0,0.99999982118606567,-1.1920928244535389E-7,0,0,0,0,1]}],"meshes":[{"primitives":[{"attributes":{"POSITION":0,"COLOR_0":1},"mode":4,"indices":2}]}],"accessors":[{"bufferView":0,"byteOffset":0,"count":6993,"componentType":5126,"type":"VEC3","min":[-0.012750000692903996,-0.012750000692903996,0],"max":[0.012750000692903996,0.012750000692903996,0.0030000000260770321]},{"bufferView":1,"byteOffset":0,"count":6993,"componentType":5121,"type":"VEC4","normalized":true},{"bufferView":2,"byteOffset":0,"count":41946,"componentType":5125,"type":"SCALAR"}],"bufferViews":[{"buffer":0,"byteOffset":0,"byteLength":83916,"byteStride":12,"target":34962},{"buffer":0,"byteOffset":83916,"byteLength":27972,"byteStride":4,"target":34962},{"buffer":0,"byteOffset":111888,"byteLength":167784,"target":34963}],"buffers":[{"byteLength":279672,"uri":"1.bin"}]}